# xmcd
#
# Track frame offsets: 
#        150
#        45180
#        69625
#        92350
#        119907
#        130642
#        143130
#        153327
#        162250
#        174257
#        189000
#        221615
#        241907
#
# Disc length: 3442 seconds
#
# Revision: 6
# Processed by: cddbd v1.5.2PL0 Copyright (c) Steve Scherf et al.
# Submitted via: ExactAudioCopyFreeDBPlugin 1.0
#
DISCID=a30d700d
DTITLE=Weber, Mendelssohn, Baermann - Sabine Meyer, Academy of St. Mar
DTITLE=tin in the Fields, Kenneth Sillito
DYEAR=2002
DGENRE=Classical
TTITLE0=Sabine Meyer, Academy of St. Martin in the Fields, Kenneth Sil
TTITLE0=lito - Klarinettenquintett B-Dur op.34 - I - Allegro
TTITLE1=Sabine Meyer, Academy of St. Martin in the Fields, Kenneth Sil
TTITLE1=lito - Klarinettenquintett B-Dur op.34 - II - Fantasia: Adagio
TTITLE1=ma non troppo
TTITLE2=Sabine Meyer, Academy of St. Martin in the Fields, Kenneth Sil
TTITLE2=lito - Klarinettenquintett B-Dur op.34 - III - Menuetto capric
TTITLE2=cio: Presto
TTITLE3=Sabine Meyer, Academy of St. Martin in the Fields, Kenneth Sil
TTITLE3=lito - Klarinettenquintett B-Dur op.34 - IV - Rondo_ Allegro g
TTITLE3=iojoso
TTITLE4=Sabine Meyer, Academy of St. Martin in the Fields, Kenneth Sil
TTITLE4=lito - Konzertstück Nr.1 f-Moll op.113 - I - Allegro di molto
TTITLE5=Sabine Meyer, Academy of St. Martin in the Fields, Kenneth Sil
TTITLE5=lito - Konzertstück Nr.1 f-Moll op.113 - II - Andante-
TTITLE6=Sabine Meyer, Academy of St. Martin in the Fields, Kenneth Sil
TTITLE6=lito - Konzertstück Nr.1 f-Moll op.113 - III - Allegro molto
TTITLE7=Sabine Meyer, Academy of St. Martin in the Fields, Kenneth Sil
TTITLE7=lito - Konzertstück Nr.2 d-Moll op.114 - I - Presto
TTITLE8=Sabine Meyer, Academy of St. Martin in the Fields, Kenneth Sil
TTITLE8=lito - Konzertstück Nr.2 d-Moll op.114 - II - Andante
TTITLE9=Sabine Meyer, Academy of St. Martin in the Fields, Kenneth Sil
TTITLE9=lito - Konzertstück Nr.2 d-Moll op.114 - III - Allegro grazios
TTITLE9=o
TTITLE10=Sabine Meyer, Academy of St. Martin in the Fields, Kenneth Si
TTITLE10=llito - Klarinettenquintett Nr.3 Es-Dur op.23 - I - Allegro n
TTITLE10=on troppo
TTITLE11=Sabine Meyer, Academy of St. Martin in the Fields, Kenneth Si
TTITLE11=llito - Klarinettenquintett Nr.3 Es-Dur op.23 - II - Adagio
TTITLE12=Sabine Meyer, Academy of St. Martin in the Fields, Kenneth Si
TTITLE12=llito - Klarinettenquintett Nr.3 Es-Dur op.23 - III - Allegro
EXTD=YEAR: 2002
EXTT0=
EXTT1=
EXTT2=
EXTT3=
EXTT4=
EXTT5=
EXTT6=
EXTT7=
EXTT8=
EXTT9=
EXTT10=
EXTT11=
EXTT12=
PLAYORDER=
